<?xml version="1.0" standalone="no"?>
<!DOCTYPE svg PUBLIC "-//W3C//DTD SVG 20010904//EN"
 "http://www.w3.org/TR/2001/REC-SVG-20010904/DTD/svg10.dtd">
<svg version="1.0" xmlns="http://www.w3.org/2000/svg"
 width="500.000000pt" height="500.000000pt" viewBox="0 0 500.000000 500.000000"
 preserveAspectRatio="xMidYMid meet">

<g transform="translate(0.000000,500.000000) scale(0.100000,-0.100000)"
fill="#000000" stroke="none">
<path d="M2325 4814 c-16 -2 -73 -9 -125 -15 -444 -50 -926 -257 -1265 -541
-453 -380 -734 -875 -822 -1448 -24 -158 -24 -472 0 -629 81 -523 313 -966
697 -1334 369 -354 827 -573 1367 -653 135 -21 498 -24 633 -6 564 75 1063
315 1445 697 368 366 596 829 661 1337 22 178 15 481 -15 653 -83 467 -300
884 -636 1221 -139 140 -234 217 -398 325 -399 262 -888 403 -1377 397 -74 0
-148 -3 -165 -4z m505 -229 c464 -71 866 -269 1199 -590 396 -383 609 -854
628 -1390 26 -726 -322 -1387 -947 -1798 -791 -520 -1878 -464 -2611 134 -525
428 -814 1087 -761 1732 23 272 84 500 197 732 321 661 974 1112 1730 1194
123 13 437 6 565 -14z"/>
<path d="M2360 4514 c-752 -54 -1409 -483 -1734 -1132 -87 -174 -151 -380
-182 -585 -20 -134 -20 -401 0 -536 97 -646 500 -1194 1096 -1492 431 -215
907 -278 1380 -183 1083 217 1800 1219 1621 2265 -147 851 -855 1520 -1743
1644 -109 15 -347 25 -438 19z m21 -250 c13 -14 29 -63 50 -154 16 -74 37
-143 47 -154 23 -26 91 -56 128 -56 40 0 89 33 186 126 108 103 103 104 314
-46 245 -175 234 -165 234 -207 0 -22 -20 -81 -50 -149 -27 -62 -50 -125 -50
-141 0 -36 37 -100 73 -127 32 -23 67 -25 214 -12 156 15 160 10 258 -290 57
-174 63 -200 52 -222 -7 -15 -59 -53 -131 -96 -139 -84 -150 -99 -144 -194 5
-78 11 -84 158 -167 102 -58 130 -84 130 -118 0 -11 -22 -88 -49 -171 -27 -83
-57 -179 -66 -213 -10 -35 -29 -75 -42 -89 -24 -26 -26 -27 -116 -20 -51 4
-119 9 -153 12 -58 6 -62 5 -98 -26 -83 -73 -86 -124 -16 -270 48 -101 57
-139 43 -175 -6 -17 -385 -306 -417 -318 -25 -10 -58 7 -125 65 -147 125 -186
140 -252 95 -39 -26 -58 -69 -88 -202 -22 -94 -42 -132 -82 -152 -38 -20 -501
-18 -539 2 -34 18 -56 73 -65 165 -15 163 -55 212 -189 235 -80 13 -116 61
-116 154 0 46 2 51 26 57 17 4 49 -2 93 -20 85 -33 190 -56 263 -56 31 0 87
-7 125 -16 108 -25 255 -15 366 26 156 57 221 117 272 249 28 74 51 98 113
119 54 19 91 51 120 105 25 48 27 62 28 185 2 132 3 134 31 164 46 49 83 60
199 56 83 -2 107 1 119 13 44 43 64 391 31 537 -32 144 -128 358 -213 473
-172 233 -412 382 -722 449 -113 24 -271 37 -271 21 0 -6 11 -11 24 -11 94 0
376 -123 521 -227 92 -67 125 -120 150 -240 25 -122 2 -136 -113 -69 -270 158
-535 232 -922 257 -194 13 -204 14 -224 35 -13 13 -16 44 -16 187 0 195 6 217
60 230 108 26 137 38 172 74 47 48 67 96 84 202 14 84 30 116 68 131 11 4 127
6 258 5 225 -1 240 -2 259 -21z m-696 -859 c166 -11 279 -26 380 -51 55 -14
104 -29 108 -33 4 -4 -2 -29 -13 -55 -17 -42 -23 -47 -43 -42 -133 38 -234 59
-412 86 -115 17 -213 34 -217 36 -10 6 -10 36 -2 59 6 14 16 16 58 11 28 -3
92 -8 141 -11z m1205 -127 c115 -56 211 -151 265 -262 37 -77 37 -80 33 -175
-6 -125 -36 -182 -110 -210 -33 -12 -33 -12 -13 36 21 49 19 89 -5 129 -24 37
-96 85 -165 108 -69 24 -103 44 -109 64 -4 10 -6 68 -5 128 2 87 -2 122 -19
173 l-21 63 32 -6 c17 -4 70 -25 117 -48z m-1124 -18 c130 -22 244 -45 255
-50 24 -13 39 -42 39 -74 0 -52 -5 -55 -78 -34 -59 16 -282 65 -444 98 -56 11
-58 12 -58 44 0 33 15 56 37 56 7 0 119 -18 249 -40z m588 26 c49 -20 76 -60
76 -113 0 -153 -221 -164 -237 -11 -5 53 23 103 70 123 41 18 50 18 91 1z
m282 -141 c53 -26 98 -54 105 -66 15 -28 7 -93 -17 -144 -21 -44 -22 -44 -104
-19 -41 12 -99 17 -236 18 -180 1 -181 1 -216 28 -43 33 -68 83 -75 151 -4 40
-2 56 10 65 13 11 19 3 45 -51 35 -77 75 -108 143 -115 62 -6 90 2 129 34 33
28 53 67 64 126 8 44 2 45 152 -27z m-931 -21 c113 -19 319 -71 355 -89 14 -7
38 -35 53 -62 15 -26 35 -58 43 -70 15 -22 15 -23 -2 -23 -95 0 -339 56 -539
123 l-130 44 -3 53 -3 52 68 -6 c37 -4 109 -14 158 -22z m-30 -183 c79 -22
194 -50 257 -62 62 -12 115 -24 117 -25 6 -5 -30 -44 -50 -54 -27 -15 -475
-33 -498 -20 -19 9 -21 20 -21 91 0 86 12 124 37 115 8 -3 79 -24 158 -45z
m1166 -53 c44 -24 44 -26 25 -72 -16 -39 -51 -66 -84 -66 -16 0 -22 -5 -19
-12 67 -158 82 -219 65 -253 -14 -26 -28 -35 -54 -35 -35 0 -55 -23 -62 -75
-8 -58 -31 -75 -102 -75 -62 0 -109 28 -145 85 -27 44 -30 57 -30 129 0 87 11
117 67 189 36 45 73 49 108 12 28 -30 41 -31 65 -5 21 24 21 24 -29 36 -59 14
-55 30 11 50 68 21 83 30 83 53 0 24 28 61 47 61 8 0 33 -10 54 -22z m-221
-13 l75 -18 -60 -17 c-101 -28 -172 -76 -215 -146 -24 -39 -36 -43 -45 -15
-10 31 -63 77 -103 89 -20 6 -66 14 -102 17 -36 3 -81 8 -100 11 l-35 6 35 18
c43 23 141 57 201 70 66 14 264 5 349 -15z m-454 -128 c3 -3 -2 -26 -11 -51
-13 -33 -16 -59 -11 -94 l6 -48 -182 23 c-101 12 -239 23 -308 24 -171 1 -174
3 -178 66 l-3 51 38 13 c21 7 92 16 158 20 135 8 482 6 491 -4z m158 -46 c29
-32 32 -91 6 -123 -18 -24 -29 -28 -69 -28 -49 0 -77 17 -81 50 -6 41 2 78 20
98 27 29 99 31 124 3z m-464 -149 c24 -9 24 -10 5 -17 -62 -23 -112 -48 -175
-89 -86 -56 -189 -101 -202 -88 -5 5 -7 51 -6 103 l3 94 35 7 c51 10 311 2
340 -10z m523 -42 c3 -28 18 -73 32 -101 14 -28 25 -53 25 -55 0 -14 -29 1
-58 29 l-34 32 15 -31 c34 -67 108 -110 216 -125 36 -5 83 -20 106 -33 22 -13
57 -26 78 -30 48 -9 44 -23 -14 -54 -57 -31 -130 -27 -216 12 -74 34 -139 98
-212 211 -52 79 -63 115 -36 115 8 0 15 5 15 11 0 12 58 69 70 69 4 0 10 -23
13 -50z m-419 32 c3 -5 -29 -51 -70 -103 -78 -96 -218 -303 -315 -464 -30 -49
-61 -90 -68 -90 -8 0 -23 12 -34 26 -16 23 -19 44 -21 145 -1 102 2 126 20
165 37 79 85 122 207 184 61 31 139 77 171 101 56 41 98 55 110 36z m100 -18
c20 -20 20 -27 -3 -72 -28 -55 -76 -212 -105 -342 -33 -153 -53 -299 -66 -504
-6 -94 -14 -174 -17 -178 -19 -33 -186 -25 -286 12 -66 25 -137 87 -137 121
-1 115 521 979 591 979 4 0 15 -7 23 -16z m142 -26 c4 -6 8 -70 9 -142 5 -309
113 -532 321 -663 52 -33 57 -44 44 -92 -34 -128 -171 -220 -359 -241 -85 -10
-195 0 -214 19 -8 8 -13 76 -16 231 -4 295 15 486 76 745 37 159 35 155 87
155 25 0 48 -5 52 -12z m54 -51 c0 -28 52 -137 87 -183 37 -49 165 -143 233
-171 64 -26 163 -30 225 -8 21 8 42 12 44 9 3 -3 7 -38 9 -79 7 -123 -44 -242
-119 -281 -27 -14 -38 -14 -77 -3 -65 18 -185 101 -236 165 -114 139 -196 357
-196 518 0 29 3 56 6 59 11 11 24 -3 24 -26z"/>
<path d="M2334 3226 c-11 -29 0 -51 26 -51 21 0 25 5 25 30 0 24 -5 31 -23 33
-13 2 -24 -3 -28 -12z"/>
<path d="M2236 2667 c-31 -22 -16 -52 27 -55 34 -3 37 -1 37 22 0 15 -8 30
-19 36 -25 13 -24 13 -45 -3z"/>
</g>
</svg>
